<svg width="24" height="24" viewBox="0 0 24 24" fill="none" xmlns="http://www.w3.org/2000/svg">
<path d="M15.4384 17.7483L14.917 18.2875L15.4384 17.7483ZM16.1664 18.5108L16.8205 18.1439L16.1664 18.5108ZM15.5812 19.958L15.7963 20.6764L15.5812 19.958ZM15.4386 6.25062L14.9172 5.71148L15.4386 6.25062ZM16.1653 5.48943L15.5113 5.12236L16.1653 5.48943ZM15.4386 6.25062L14.9172 5.71148C13.2735 7.301 12.25 9.53133 12.25 12H13H13.75C13.75 9.95449 14.5964 8.10843 15.96 6.78975L15.4386 6.25062ZM13 12H12.25C12.25 14.4685 13.2736 16.6983 14.917 18.2875L15.4384 17.7483L15.9597 17.2092C14.5963 15.8907 13.75 14.0452 13.75 12H13ZM15 20V19.25C10.9959 19.25 7.75 16.0041 7.75 12H7H6.25C6.25 16.8325 10.1675 20.75 15 20.75V20ZM7 12H7.75C7.75 7.99594 10.9959 4.75 15 4.75V4V3.25C10.1675 3.25 6.25 7.16751 6.25 12H7ZM15.4384 17.7483L14.917 18.2875C15.1396 18.5027 15.2935 18.6517 15.4018 18.7631C15.5256 18.8904 15.5308 18.9107 15.5123 18.8777L16.1664 18.5108L16.8205 18.1439C16.7303 17.983 16.5903 17.8337 16.4774 17.7175C16.349 17.5854 16.1748 17.4171 15.9597 17.2092L15.4384 17.7483ZM15 20V20.75C15.2515 20.75 15.5267 20.7572 15.7963 20.6764L15.5812 19.958L15.366 19.2395C15.3658 19.2395 15.3654 19.2396 15.3645 19.2398C15.3636 19.2401 15.3614 19.2405 15.3575 19.2411C15.3492 19.2424 15.3334 19.2443 15.3049 19.246C15.2404 19.2497 15.1551 19.25 15 19.25V20ZM16.1664 18.5108L15.5123 18.8777C15.5905 19.0171 15.5191 19.1936 15.366 19.2395L15.5812 19.958L15.7963 20.6764C16.8696 20.355 17.3686 19.121 16.8205 18.1439L16.1664 18.5108ZM15 4V4.75C15.1548 4.75 15.2398 4.75028 15.304 4.754C15.3325 4.75564 15.3482 4.75757 15.3564 4.75884C15.3603 4.75945 15.3625 4.75991 15.3635 4.76012C15.3644 4.76032 15.3648 4.76043 15.365 4.76049L15.5799 4.04196L15.7949 3.32343C15.5255 3.24284 15.2509 3.25 15 3.25V4ZM15.4386 6.25062L15.96 6.78975C16.1746 6.5822 16.3485 6.41416 16.4767 6.28225C16.5894 6.16626 16.7292 6.01713 16.8194 5.85649L16.1653 5.48943L15.5113 5.12236C15.5298 5.08937 15.5246 5.10967 15.4011 5.23676C15.293 5.34795 15.1393 5.49668 14.9172 5.71148L15.4386 6.25062ZM15.5799 4.04196L15.365 4.76049C15.5182 4.80633 15.5896 4.9829 15.5113 5.12236L16.1653 5.48943L16.8194 5.85649C17.3679 4.87911 16.8687 3.64469 15.7949 3.32343L15.5799 4.04196Z" fill="#1D1F20"/>
</svg>
