<svg width="24" height="24" viewBox="0 0 24 24" fill="none" xmlns="http://www.w3.org/2000/svg">
<circle cx="12" cy="12" r="2.25" transform="rotate(45 12 12)" stroke="#1D1F20" stroke-width="1.5"/>
<path d="M14.1209 9.87861L16.2422 7.75729M18.3635 5.63597L16.2422 7.75729M16.2422 7.75729L15.5351 4.22176M16.2422 7.75729L19.7777 8.4644" stroke="#1D1F20" stroke-width="1.5" stroke-linecap="round"/>
<path d="M14.1214 14.1214L16.2427 16.2427M18.364 18.364L16.2427 16.2427M16.2427 16.2427L19.7782 15.5356M16.2427 16.2427L15.5356 19.7782" stroke="#1D1F20" stroke-width="1.5" stroke-linecap="round"/>
<path d="M9.87861 14.1214L7.75729 16.2427M5.63597 18.364L7.75729 16.2427M7.75729 16.2427L4.22176 15.5356M7.75729 16.2427L8.4644 19.7782" stroke="#1D1F20" stroke-width="1.5" stroke-linecap="round"/>
<path d="M9.87913 9.87861L7.75781 7.75729M5.63649 5.63597L7.75781 7.75729M7.75781 7.75729L8.46492 4.22176M7.75781 7.75729L4.22228 8.4644" stroke="#1D1F20" stroke-width="1.5" stroke-linecap="round"/>
</svg>
