<svg width="24" height="24" viewBox="0 0 24 24" fill="none" xmlns="http://www.w3.org/2000/svg">
<path d="M11.8984 9.92969L12.0127 9.95312L12.123 9.99121C12.3669 10.0925 12.5161 10.2816 12.5967 10.4473C12.6774 10.6133 12.7069 10.7857 12.7217 10.9082C12.7515 11.1554 12.75 11.4886 12.75 11.8359V13.4512C13.3962 13.4516 13.9573 13.4567 14.3945 13.5215C14.893 13.5954 15.4528 13.7757 15.7705 14.3311C16.0881 14.8863 15.9604 15.4597 15.7715 15.9268C15.5849 16.3881 15.2537 16.9476 14.873 17.5947L13.5771 19.7979C13.4011 20.0972 13.233 20.3851 13.082 20.583C13.0072 20.6811 12.8948 20.8149 12.7412 20.917C12.5658 21.0335 12.2975 21.1313 11.9873 21.0469C11.6771 20.9624 11.4955 20.7421 11.4033 20.5527C11.3226 20.3867 11.2931 20.2143 11.2783 20.0918C11.2485 19.8446 11.25 19.5114 11.25 19.1641V17.5479C10.6038 17.5474 10.0427 17.5433 9.60547 17.4785C9.107 17.4046 8.54723 17.2243 8.22949 16.6689C7.91195 16.1137 8.03963 15.5403 8.22852 15.0732C8.41515 14.6119 8.74628 14.0524 9.12695 13.4053L10.4229 11.2021C10.5989 10.9028 10.767 10.6149 10.918 10.417C10.9928 10.3189 11.1052 10.1851 11.2588 10.083C11.4123 9.98108 11.6369 9.89339 11.8984 9.92969Z" stroke="#1D1F20" stroke-width="1.5"/>
<path d="M12 2.25C14.3387 2.25 16.3488 3.6465 17.2471 5.64746C17.4289 6.05235 17.7427 6.25 18 6.25C20.0711 6.25 21.75 7.92893 21.75 10C21.75 11.7334 20.5734 13.1906 18.9756 13.6201C18.9751 13.6162 18.9751 13.6123 18.9746 13.6084C18.9061 13.0879 18.7041 12.6113 18.4062 12.2109C19.4548 12.0195 20.25 11.1038 20.25 10C20.25 8.75736 19.2426 7.75 18 7.75C16.9767 7.75 16.2217 7.02505 15.8789 6.26172C15.2137 4.77984 13.7264 3.75 12 3.75C10.2736 3.75 8.78631 4.77984 8.12109 6.26172C7.77835 7.02505 7.02329 7.75 6 7.75C4.75736 7.75 3.75 8.75736 3.75 10C3.75 11.1034 4.54473 12.0191 5.59277 12.2109C5.2951 12.6112 5.09389 13.0881 5.02539 13.6084C5.02488 13.6123 5.02393 13.6162 5.02344 13.6201C3.42608 13.1903 2.25 11.7331 2.25 10C2.25 7.92893 3.92893 6.25 6 6.25C6.25732 6.25 6.57112 6.05235 6.75293 5.64746C7.65116 3.6465 9.66135 2.25 12 2.25Z" fill="#1D1F20"/>
</svg>
