<svg width="24" height="24" viewBox="0 0 24 24" fill="none" xmlns="http://www.w3.org/2000/svg">
<path d="M10.5479 2.56958C11.0928 2.40846 11.6739 2.40843 12.2188 2.56958C12.5708 2.6738 12.8698 2.85446 13.1641 3.07446C13.4507 3.28868 13.7776 3.5756 14.168 3.91724L19.3067 8.41235C19.7067 8.76233 20.0174 9.02697 20.2432 9.35962C20.4315 9.63709 20.5707 9.94481 20.6553 10.2688C20.7568 10.6576 20.751 11.0651 20.751 11.5959V17.5364C20.751 18.0237 20.7522 18.4299 20.7296 18.762C20.7064 19.1012 20.656 19.4221 20.5274 19.7327C20.2288 20.4535 19.6557 21.0283 18.9337 21.3274C18.623 21.456 18.3022 21.5054 17.963 21.5286C17.6307 21.5512 17.224 21.551 16.7364 21.551C16.2486 21.551 15.8421 21.5512 15.5098 21.5286C15.1704 21.5054 14.849 21.4562 14.5381 21.3274C13.8164 21.0284 13.244 20.4535 12.9454 19.7327C12.8167 19.4219 12.7664 19.1004 12.7432 18.761C12.7206 18.429 12.7217 18.0235 12.7217 17.5364V16.4651C12.7216 15.7261 12.1219 15.1272 11.3829 15.1272C10.6439 15.1273 10.0451 15.7261 10.045 16.4651V17.5364C10.045 18.0237 10.0452 18.4299 10.0225 18.762C9.99933 19.1011 9.94989 19.4221 9.82135 19.7327C9.52276 20.4535 8.94957 21.0283 8.2276 21.3274C7.91673 21.4561 7.59538 21.5054 7.25592 21.5286C6.92375 21.5512 6.51772 21.551 6.03034 21.551C5.5427 21.551 5.13598 21.5512 4.80378 21.5286C4.46432 21.5054 4.14296 21.4561 3.8321 21.3274C3.11014 21.0284 2.53695 20.4536 2.23835 19.7327C2.10969 19.4219 2.06033 19.1003 2.03717 18.761C2.01457 18.4291 2.01471 18.0235 2.01471 17.5364V11.5959C2.01471 11.0663 2.00882 10.6579 2.11042 10.2688C2.19551 9.94314 2.33697 9.63586 2.52448 9.35962C2.75027 9.02713 3.05909 8.76232 3.45905 8.41235L8.59967 3.91431C8.98918 3.57349 9.31561 3.28838 9.60163 3.07446C9.89584 2.85447 10.1958 2.67375 10.5479 2.56958Z" fill="#1D1F20"/>
</svg>
