<svg width="24" height="24" viewBox="0 0 24 24" fill="none" xmlns="http://www.w3.org/2000/svg">
<path d="M4.586 10.3492L7.84516 12.2502C8.32716 12.5314 8.56815 12.672 8.70093 12.9019C8.83372 13.1319 8.83496 13.4109 8.83744 13.9689L8.85424 17.742C8.86536 20.2378 8.87091 21.4858 9.55771 21.7097C10.2445 21.9336 10.9845 20.9288 12.4646 18.9191L20.2475 8.35131C21.4097 6.77327 21.9908 5.98425 21.6638 5.41785C21.3368 4.85146 20.3629 4.96019 18.4152 5.17765L5.37178 6.63393C2.89131 6.91087 1.65108 7.04934 1.5016 7.75609C1.35212 8.46283 2.43008 9.09161 4.586 10.3492Z" fill="#1D1F20"/>
</svg>
