<svg width="24" height="24" viewBox="0 0 24 24" fill="none" xmlns="http://www.w3.org/2000/svg">
<path d="M11.75 5.38605C13.0599 3.57488 15.1711 2.775 17.1074 3.05402C18.275 3.22238 19.3843 3.78448 20.1992 4.75324C21.0163 5.7247 21.5 7.05952 21.5 8.7093C21.5 12.0593 19.016 15.0038 16.748 17.0198C15.5901 18.0492 14.4356 18.8827 13.5723 19.4583C13.1399 19.7465 12.7789 19.9718 12.5244 20.1253C12.3973 20.202 12.2963 20.2608 12.2266 20.3011C12.1919 20.3211 12.1644 20.3363 12.1455 20.347C12.1361 20.3523 12.1283 20.3568 12.123 20.3597C12.1206 20.3611 12.1187 20.3627 12.1172 20.3636L12.1152 20.3646H12.1143C11.916 20.4747 11.6802 20.4892 11.4727 20.4066L11.3857 20.3646H11.3848L11.3828 20.3636C11.3813 20.3627 11.3794 20.3611 11.377 20.3597C11.3717 20.3568 11.3639 20.3523 11.3545 20.347C11.3356 20.3363 11.3081 20.3211 11.2734 20.3011C11.2037 20.2608 11.1027 20.202 10.9756 20.1253C10.7211 19.9718 10.3601 19.7465 9.92773 19.4583C9.06438 18.8827 7.90992 18.0492 6.75195 17.0198C4.484 15.0038 2.00005 12.0593 2 8.7093C2.00003 7.05952 2.48375 5.7247 3.30078 4.75324C4.11575 3.78448 5.22499 3.22238 6.39258 3.05402C8.32893 2.775 10.4401 3.57488 11.75 5.38605Z" fill="#33C9E6"/>
</svg>
