<svg width="24" height="24" viewBox="0 0 24 24" fill="none" xmlns="http://www.w3.org/2000/svg">
<path d="M20 8.70955C20 7.35958 19.6085 6.38138 19.0508 5.71834C18.4909 5.05295 17.7246 4.65855 16.8926 4.53865C15.2212 4.29801 13.3039 5.17118 12.4404 7.19783C12.3226 7.47438 12.0506 7.65388 11.75 7.65388C11.4494 7.65388 11.1774 7.47438 11.0596 7.19783C10.1961 5.17118 8.27876 4.29801 6.60742 4.53865C5.77537 4.65855 5.0091 5.05295 4.44922 5.71834C3.89146 6.38138 3.5 7.35958 3.5 8.70955C3.50005 11.3594 5.51612 13.915 7.74805 15.899C8.83999 16.8696 9.93567 17.6611 10.7598 18.2105C11.1704 18.4843 11.5124 18.6961 11.75 18.8394C11.9876 18.6961 12.3296 18.4843 12.7402 18.2105C13.5643 17.6611 14.66 16.8696 15.752 15.899C17.9839 13.915 20 11.3594 20 8.70955ZM21.5 8.70955C21.5 12.0596 19.016 15.0041 16.748 17.0201C15.5901 18.0494 14.4356 18.883 13.5723 19.4586C13.1399 19.7468 12.7789 19.972 12.5244 20.1256C12.3972 20.2023 12.2963 20.261 12.2266 20.3013C12.1919 20.3214 12.1644 20.3366 12.1455 20.3472C12.1361 20.3526 12.1283 20.357 12.123 20.3599C12.1205 20.3614 12.1187 20.363 12.1172 20.3638L12.1152 20.3648H12.1143C11.916 20.4749 11.6802 20.4894 11.4727 20.4068L11.3857 20.3648H11.3848L11.3828 20.3638C11.3813 20.363 11.3795 20.3614 11.377 20.3599C11.3717 20.357 11.3639 20.3526 11.3545 20.3472C11.3356 20.3366 11.3081 20.3214 11.2734 20.3013C11.2037 20.261 11.1028 20.2023 10.9756 20.1256C10.7211 19.972 10.3601 19.7468 9.92773 19.4586C9.06437 18.883 7.90994 18.0494 6.75195 17.0201C4.48398 15.0041 2.00005 12.0596 2 8.70955C2 7.05971 2.48372 5.72497 3.30078 4.75349C4.11575 3.78468 5.22496 3.22264 6.39258 3.05427C8.32896 2.77524 10.4401 3.57506 11.75 5.3863C13.0599 3.57506 15.171 2.77524 17.1074 3.05427C18.275 3.22264 19.3842 3.78468 20.1992 4.75349C21.0163 5.72497 21.5 7.05971 21.5 8.70955Z" fill="#1D1F20"/>
</svg>
