<svg width="24" height="24" viewBox="0 0 24 24" fill="none" xmlns="http://www.w3.org/2000/svg">
<g clip-path="url(#clip0_90_2537)">
<path d="M6.0293 5.11597C9.11581 1.34258 14.8853 1.34239 17.9717 5.11597C20.2953 7.95705 20.2951 12.0424 17.9717 14.8835L12.5811 21.4744C12.4388 21.6483 12.2257 21.7495 12.001 21.7498C11.776 21.7498 11.5624 21.6485 11.4199 21.4744L6.0293 14.8835C3.70557 12.0424 3.70557 7.95715 6.0293 5.11597ZM12.0098 7.49976C10.6291 7.49976 9.50986 8.61912 9.50977 9.99976C9.50977 11.3805 10.6291 12.4998 12.0098 12.4998C13.3903 12.4996 14.5098 11.3803 14.5098 9.99976C14.5097 8.61925 13.3902 7.49996 12.0098 7.49976Z" fill="#1D1F20"/>
</g>
<defs>
<clipPath id="clip0_90_2537">
<rect width="24" height="24" fill="white"/>
</clipPath>
</defs>
</svg>
