<svg width="24" height="24" viewBox="0 0 24 24" fill="none" xmlns="http://www.w3.org/2000/svg">
<path d="M18 17V17.75V17.75V17ZM7.43685 9.95428L6.75262 9.64714L7.43685 9.95428ZM16.5632 9.95428L17.2474 9.64713L16.5632 9.95428ZM12 7V7.75C13.7264 7.75 15.2137 8.77955 15.8789 10.2614L16.5632 9.95428L17.2474 9.64713C16.3491 7.64617 14.3387 6.25 12 6.25V7ZM18 11V11.75C19.2426 11.75 20.25 12.7574 20.25 14H21H21.75C21.75 11.9289 20.0711 10.25 18 10.25V11ZM21 14H20.25C20.25 15.2426 19.2426 16.25 18 16.25V17V17.75C20.0711 17.75 21.75 16.0711 21.75 14H21ZM18 17V16.25H6V17V17.75H18V17ZM6 17V16.25C4.75736 16.25 3.75 15.2426 3.75 14H3H2.25C2.25 16.0711 3.92893 17.75 6 17.75V17ZM3 14H3.75C3.75 12.7574 4.75736 11.75 6 11.75V11V10.25C3.92893 10.25 2.25 11.9289 2.25 14H3ZM7.43685 9.95428L8.12107 10.2614C8.78628 8.77955 10.2736 7.75 12 7.75V7V6.25C9.66135 6.25 7.65086 7.64617 6.75262 9.64714L7.43685 9.95428ZM6 11V11.75C7.02339 11.75 7.77837 11.0248 8.12107 10.2614L7.43685 9.95428L6.75262 9.64714C6.57082 10.0521 6.25735 10.25 6 10.25V11ZM16.5632 9.95428L15.8789 10.2614C16.2216 11.0248 16.9766 11.75 18 11.75V11V10.25C17.7426 10.25 17.4292 10.0521 17.2474 9.64713L16.5632 9.95428Z" fill="#1D1F20"/>
</svg>
