<svg width="24" height="24" viewBox="0 0 24 24" fill="none" xmlns="http://www.w3.org/2000/svg">
<path d="M19.762 11.8841C19.762 11.2712 19.7556 11.1053 19.7181 10.962C19.6795 10.8144 19.6164 10.6748 19.531 10.549C19.4477 10.4264 19.3269 10.3124 18.866 9.90912L13.7272 5.4133C13.3183 5.05551 13.0452 4.81662 12.8197 4.64796C12.6023 4.48549 12.4769 4.42583 12.3795 4.39703C12.1319 4.32383 11.868 4.32386 11.6204 4.39703C11.5232 4.42579 11.3975 4.48555 11.1803 4.64796C10.9551 4.81635 10.6828 5.05421 10.2748 5.41121L5.1339 9.90912C4.67294 10.3125 4.55219 10.4263 4.46893 10.549C4.38264 10.6761 4.31998 10.816 4.28178 10.962C4.2444 11.105 4.23787 11.27 4.23787 11.8841V17.8238C4.23787 18.3335 4.23862 18.6757 4.25669 18.9405C4.27424 19.1976 4.30514 19.3231 4.33929 19.4058C4.47534 19.7342 4.73646 19.9957 5.06385 20.1314C5.1464 20.1655 5.27197 20.1964 5.52911 20.214C5.79405 20.232 6.13695 20.2328 6.64679 20.2328C7.15627 20.2328 7.49842 20.232 7.76343 20.214C8.02111 20.1964 8.14719 20.1655 8.22974 20.1314C8.55711 19.9958 8.8172 19.7342 8.95325 19.4058C8.98745 19.3231 9.0193 19.1978 9.03689 18.9405C9.05499 18.6756 9.05571 18.3334 9.05571 17.8238V16.7532C9.05571 15.1272 10.3739 13.809 12 13.809C13.626 13.809 14.9442 15.1272 14.9442 16.7532V17.8238C14.9442 18.3334 14.9449 18.6756 14.963 18.9405C14.9806 19.1976 15.0115 19.3232 15.0456 19.4058C15.1816 19.7341 15.4427 19.9957 15.7702 20.1314C15.8527 20.1655 15.9783 20.1964 16.2354 20.214C16.5004 20.232 16.8433 20.2328 17.3531 20.2328C17.8626 20.2328 18.2047 20.232 18.4697 20.214C18.7274 20.1964 18.8535 20.1655 18.9361 20.1314C19.2634 19.9958 19.5235 19.7343 19.6596 19.4058C19.6938 19.3231 19.7256 19.1978 19.7432 18.9405C19.7613 18.6757 19.762 18.3335 19.762 17.8238V11.8841ZM21.368 17.8238C21.368 18.3116 21.3687 18.7181 21.346 19.0503C21.3228 19.3895 21.2728 19.7099 21.1442 20.0205C20.8457 20.7413 20.2729 21.3159 19.5508 21.615C19.2399 21.7437 18.919 21.7936 18.5795 21.8168C18.2472 21.8394 17.8409 21.8387 17.3531 21.8387C16.8653 21.8387 16.459 21.8394 16.1267 21.8168C15.7872 21.7936 15.4663 21.7437 15.1554 21.615C14.4335 21.316 13.8606 20.7415 13.562 20.0205C13.4333 19.7097 13.3834 19.3886 13.3602 19.0492C13.3376 18.7171 13.3382 18.3113 13.3382 17.8238V16.7532C13.3382 16.0141 12.7391 15.4149 12 15.4149C11.2608 15.4149 10.6617 16.0141 10.6617 16.7532V17.8238C10.6617 18.3116 10.6624 18.7181 10.6397 19.0503C10.6165 19.3895 10.5665 19.7099 10.4379 20.0205C10.1393 20.7414 9.56648 21.3159 8.84452 21.615C8.53362 21.7437 8.21269 21.7936 7.87321 21.8168C7.54086 21.8394 7.13454 21.8387 6.64679 21.8387C6.159 21.8387 5.75263 21.8394 5.42037 21.8168C5.0809 21.7936 4.75995 21.7437 4.44907 21.615C3.72711 21.3159 3.15427 20.7414 2.85567 20.0205C2.72697 19.7097 2.67704 19.3886 2.65388 19.0492C2.63124 18.7171 2.63192 18.3113 2.63192 17.8238V11.8841C2.63192 11.3542 2.62538 10.9456 2.72707 10.5563C2.81216 10.2306 2.95359 9.92397 3.1411 9.64773C3.36691 9.31509 3.67572 9.05055 4.07581 8.70047L9.21673 4.20256C9.60631 3.86168 9.93229 3.57589 10.2184 3.36195C10.5126 3.14196 10.8124 2.96112 11.1646 2.85695C11.7095 2.69579 12.2904 2.69579 12.8353 2.85695C13.1876 2.96117 13.4871 3.1418 13.7816 3.36195C14.0681 3.57617 14.3948 3.86301 14.7853 4.20465L19.9241 8.70047C20.3241 9.05046 20.634 9.31506 20.8599 9.64773C21.0481 9.9252 21.1871 10.2323 21.2718 10.5563C21.3734 10.9454 21.368 11.353 21.368 11.8841V17.8238Z" fill="#1D1F20"/>
</svg>
