<svg width="24" height="24" viewBox="0 0 24 24" fill="none" xmlns="http://www.w3.org/2000/svg">
<path d="M18 13V13.75V13.75V13ZM7.43685 5.95428L6.75262 5.64714L7.43685 5.95428ZM16.5632 5.95428L17.2474 5.64713L16.5632 5.95428ZM12 3V3.75C13.7264 3.75 15.2137 4.77955 15.8789 6.26143L16.5632 5.95428L17.2474 5.64713C16.3491 3.64617 14.3387 2.25 12 2.25V3ZM18 7V7.75C19.2426 7.75 20.25 8.75736 20.25 10H21H21.75C21.75 7.92893 20.0711 6.25 18 6.25V7ZM21 10H20.25C20.25 11.2426 19.2426 12.25 18 12.25V13V13.75C20.0711 13.75 21.75 12.0711 21.75 10H21ZM18 13V12.25H6V13V13.75H18V13ZM6 13V12.25C4.75736 12.25 3.75 11.2426 3.75 10H3H2.25C2.25 12.0711 3.92893 13.75 6 13.75V13ZM3 10H3.75C3.75 8.75736 4.75736 7.75 6 7.75V7V6.25C3.92893 6.25 2.25 7.92893 2.25 10H3ZM7.43685 5.95428L8.12107 6.26143C8.78628 4.77955 10.2736 3.75 12 3.75V3V2.25C9.66135 2.25 7.65086 3.64617 6.75262 5.64714L7.43685 5.95428ZM6 7V7.75C7.02339 7.75 7.77837 7.02485 8.12107 6.26143L7.43685 5.95428L6.75262 5.64714C6.57082 6.05213 6.25735 6.25 6 6.25V7ZM16.5632 5.95428L15.8789 6.26143C16.2216 7.02485 16.9766 7.75 18 7.75V7V6.25C17.7426 6.25 17.4292 6.05213 17.2474 5.64713L16.5632 5.95428Z" fill="#1D1F20"/>
<path d="M12 19V17" stroke="#1D1F20" stroke-width="1.5" stroke-linecap="round"/>
<path d="M17 20V17" stroke="#1D1F20" stroke-width="1.5" stroke-linecap="round"/>
<path d="M7 21V17" stroke="#1D1F20" stroke-width="1.5" stroke-linecap="round"/>
</svg>
