<svg width="24" height="24" viewBox="0 0 24 24" fill="none" xmlns="http://www.w3.org/2000/svg">
<path d="M3 11.9998H21V17C21 18.8856 21 19.8284 20.4142 20.4142C19.8284 21 18.8856 21 17 21H7C5.11438 21 4.17157 21 3.58579 20.4142C3 19.8284 3 18.8856 3 17V11.9998Z" fill="#1D1F20" stroke="#1D1F20" stroke-width="1.5"/>
<path d="M21 10C21 8.11438 21 7.17157 20.4142 6.58579C19.8284 6 18.8856 6 17 6H7C5.11438 6 4.17157 6 3.58579 6.58579C3 7.17157 3 8.11438 3 10" stroke="#1D1F20" stroke-width="1.5"/>
<path d="M3 10C3 8.11438 3 7.17157 3.58579 6.58579C4.17157 6 5.11438 6 7 6H17C18.8856 6 19.8284 6 20.4142 6.58579C21 7.17157 21 8.11438 21 10H3Z" fill="#1D1F20"/>
<path d="M7 3L7 6" stroke="#1D1F20" stroke-width="1.5" stroke-linecap="round"/>
<path d="M17 3L17 6" stroke="#1D1F20" stroke-width="1.5" stroke-linecap="round"/>
</svg>
